<svg width="4000" height="1024" viewBox="0 0 4000 1024" fill="none" xmlns="http://www.w3.org/2000/svg">
<g clip-path="url(#clip0_219_2)">
<rect width="4000" height="1024" fill="url(#paint0_linear_219_2)"/>
<line x1="644" y1="533" x2="644" y2="-55" stroke="black" stroke-opacity="0.32" stroke-width="12"/>
<line x1="1054" y1="471" x2="1054" y2="-117" stroke="black" stroke-opacity="0.32" stroke-width="12"/>
<line x1="1252" y1="724" x2="1252" y2="216" stroke="black" stroke-opacity="0.32" stroke-width="12"/>
<line x1="863" y1="706" x2="863" y2="2.59356e-07" stroke="black" stroke-opacity="0.32" stroke-width="12"/>
<line x1="1595" y1="193" x2="1595" y2="-395" stroke="black" stroke-opacity="0.32" stroke-width="12"/>
<path d="M1226 114L1367 255L1226 396L1085 255L1226 114Z" fill="url(#paint1_linear_219_2)"/>
<path d="M1085 724L618 642V686L1085 768V724Z" fill="url(#paint2_linear_219_2)"/>
<rect x="1480" y="75" width="162" height="321" fill="url(#paint3_linear_219_2)"/>
<path d="M1307.5 607L1418 803H1197L1307.5 607Z" fill="url(#paint4_linear_219_2)"/>
<path d="M825.5 412L715 216L936 216L825.5 412Z" fill="url(#paint5_linear_219_2)"/>
<rect x="1028" y="693" width="220" height="220" fill="url(#paint6_linear_219_2)"/>
<path d="M869 478L1455 396V440L869 522V478Z" fill="url(#paint7_linear_219_2)"/>
<rect x="1248" y="255" width="119" height="119" rx="59.5" fill="url(#paint8_linear_219_2)"/>
<rect x="1332" y="255" width="172" height="172" rx="86" fill="url(#paint9_linear_219_2)"/>
<path d="M1404 383.266H1712V509.499L1691 509.996C1637.15 400.275 1480.19 399.959 1427 510L1404 509.499V383.266Z" fill="url(#paint10_linear_219_2)"/>
<path d="M1383 427L1493 537L1383 647L1273 537L1383 427Z" fill="url(#paint11_linear_219_2)"/>
<path d="M669.5 427L840 597.5L669.5 768L499 597.5L669.5 427Z" fill="url(#paint12_linear_219_2)"/>
<rect x="1208" y="521" width="152" height="152" rx="76" fill="url(#paint13_linear_219_2)"/>
<rect x="1076" y="451" width="172" height="172" rx="86" fill="url(#paint14_linear_219_2)"/>
<rect x="710" y="314" width="232" height="232" rx="116" fill="url(#paint15_linear_219_2)"/>
<path d="M1718.37 316.272C1718.27 316.121 1718.13 316.002 1717.96 315.927C1714.61 314.417 1711.09 313.316 1707.48 312.647C1707.06 312.57 1706.65 312.77 1706.45 313.144C1706.16 313.686 1705.89 314.236 1705.63 314.795C1705.44 315.209 1705.01 315.453 1704.55 315.393C1700.85 314.904 1697.1 314.904 1693.4 315.393C1692.95 315.453 1692.51 315.209 1692.32 314.795C1692.06 314.237 1691.79 313.687 1691.51 313.145C1691.31 312.771 1690.89 312.571 1690.47 312.648C1686.86 313.322 1683.34 314.425 1679.98 315.935C1679.81 316.01 1679.67 316.132 1679.57 316.285C1672.57 326.754 1670.59 336.969 1671.47 347.041C1671.49 347.324 1671.64 347.582 1671.87 347.749C1675.83 350.612 1680.21 352.829 1684.86 354.315C1685.26 354.444 1685.7 354.3 1685.95 353.956C1686.7 352.901 1687.39 351.805 1688.01 350.672C1688.3 350.149 1688.04 349.5 1687.49 349.27C1686.54 348.874 1685.61 348.428 1684.71 347.936C1684.28 347.702 1684.25 347.097 1684.64 346.8V346.8C1684.84 346.646 1685.11 346.621 1685.34 346.726C1689.62 348.675 1694.27 349.684 1698.98 349.684C1703.69 349.684 1708.34 348.675 1712.62 346.726C1712.85 346.621 1713.13 346.658 1713.33 346.814V346.814C1713.71 347.111 1713.68 347.705 1713.26 347.936C1712.35 348.43 1711.42 348.877 1710.46 349.275C1709.91 349.504 1709.66 350.153 1709.95 350.676C1710.57 351.809 1711.26 352.904 1712.01 353.958C1712.26 354.3 1712.69 354.444 1713.09 354.317C1717.75 352.835 1722.14 350.619 1726.1 347.753C1726.33 347.586 1726.47 347.327 1726.5 347.045C1727.52 335.398 1724.46 325.271 1718.37 316.272ZM1689.78 341.156C1687.04 341.156 1684.79 338.676 1684.79 335.625C1684.79 332.574 1686.97 330.072 1689.77 330.072C1692.57 330.072 1694.81 332.574 1694.76 335.625C1694.72 338.676 1692.56 341.156 1689.78 341.156ZM1708.19 341.156C1705.45 341.156 1703.2 338.676 1703.2 335.625C1703.2 332.574 1705.38 330.072 1708.19 330.072C1710.99 330.072 1713.22 332.574 1713.17 335.625C1713.12 338.676 1710.97 341.156 1708.19 341.156Z" stroke="url(#paint16_linear_219_2)" stroke-width="5"/>
<rect x="1661.67" y="301.551" width="70" height="70" rx="7.5" transform="rotate(-4 1661.67 301.551)" stroke="url(#paint17_linear_219_2)" stroke-width="5"/>
<rect x="1401.03" y="678.586" width="70" height="70" rx="7.5" transform="rotate(2 1401.03 678.586)" stroke="url(#paint18_linear_219_2)" stroke-width="5"/>
<path d="M1428.27 707.45H1445.66" stroke="url(#paint19_linear_219_2)" stroke-width="5" stroke-linecap="round"/>
<path d="M1423.05 714.985H1440.44" stroke="url(#paint20_linear_219_2)" stroke-width="5" stroke-linecap="round"/>
<path d="M1428.27 722.52H1445.66" stroke="url(#paint21_linear_219_2)" stroke-width="5" stroke-linecap="round"/>
<ellipse cx="1444.79" cy="698.756" rx="3.1879" ry="3.47771" fill="url(#paint22_linear_219_2)"/>
<circle cx="1430.01" cy="733.533" r="3.47771" fill="url(#paint23_linear_219_2)"/>
<path fill-rule="evenodd" clip-rule="evenodd" d="M1426.14 695.236C1418.01 699.395 1411.76 706.322 1411.76 717.971C1411.76 724.579 1413.64 730.175 1417.76 734.134C1421.88 738.104 1428.62 740.788 1439.07 740.788C1443.42 740.788 1448.79 738.667 1452.19 734.864C1455.42 731.245 1456.98 725.986 1453.73 719.029C1449.82 710.648 1451.83 702.475 1453.19 696.909C1453.26 696.643 1453.32 696.383 1453.38 696.128C1453.73 694.69 1454 693.504 1454.14 692.496C1454.28 691.464 1454.24 690.867 1454.14 690.537C1454.09 690.331 1454.03 690.251 1453.83 690.145C1453.51 689.977 1452.8 689.761 1451.36 689.761C1444.5 689.761 1434.41 691.008 1426.14 695.236ZM1423.87 690.784C1433.11 686.061 1444.07 684.761 1451.36 684.761C1453.17 684.761 1454.82 685.014 1456.17 685.727C1457.63 686.501 1458.54 687.715 1458.95 689.159C1459.33 690.479 1459.27 691.889 1459.1 693.166C1458.92 694.466 1458.59 695.89 1458.24 697.307L1458.12 697.805C1456.72 703.549 1455.11 710.162 1458.27 716.914C1459.67 719.915 1460.37 722.756 1460.5 725.398C1460.26 725.342 1460.01 725.312 1459.75 725.312C1457.84 725.312 1456.3 726.921 1456.3 728.907C1456.3 730.776 1457.67 732.312 1459.41 732.486C1458.61 734.612 1457.41 736.525 1455.92 738.193C1451.52 743.116 1444.76 745.788 1439.07 745.788C1427.81 745.788 1419.64 742.888 1414.29 737.736C1408.93 732.574 1406.76 725.511 1406.76 717.971C1406.76 713.341 1407.61 709.319 1409.09 705.837C1409.1 705.837 1409.1 705.837 1409.11 705.837C1411.01 705.837 1412.56 704.227 1412.56 702.242C1412.56 701.604 1412.4 701.005 1412.12 700.486C1415.19 696.261 1419.34 693.099 1423.87 690.784Z" fill="url(#paint24_linear_219_2)"/>
<path fill-rule="evenodd" clip-rule="evenodd" d="M1466.24 196.438C1466.23 199.381 1463.18 201.183 1460.63 199.721C1458.91 198.729 1457.14 197.83 1455.29 197.081C1451.63 195.592 1447.83 194.59 1443.96 193.896C1441.25 193.413 1438.53 193.094 1435.8 192.927C1432.95 192.754 1430.11 192.734 1427.26 192.883C1424 193.054 1420.76 193.418 1417.56 194.117C1416.38 194.376 1415.22 194.701 1414.05 195.017C1413.34 195.211 1412.63 195.236 1411.92 195.024C1410.36 194.562 1409.29 193.146 1409.24 191.487C1409.2 189.877 1410.18 188.379 1411.72 187.865C1412.84 187.488 1414 187.191 1415.16 186.92C1418.02 186.249 1420.93 185.833 1423.86 185.562C1426.97 185.274 1430.09 185.182 1433.21 185.272C1440.89 185.495 1448.42 186.634 1455.71 189.185C1458.68 190.226 1461.54 191.517 1464.26 193.126C1465.23 193.699 1465.88 194.508 1466.13 195.626C1466.19 195.891 1466.2 196.167 1466.24 196.438Z" fill="url(#paint25_linear_219_2)"/>
<path fill-rule="evenodd" clip-rule="evenodd" d="M1430 205.766C1425.48 205.786 1420.85 206.383 1416.33 207.813C1415.6 208.046 1414.86 208.062 1414.14 207.75C1412.96 207.243 1412.2 205.988 1412.24 204.66C1412.28 203.275 1413.08 202.069 1414.33 201.662C1415.6 201.247 1416.9 200.887 1418.2 200.579C1421.4 199.821 1424.64 199.42 1427.92 199.287C1434.98 199.002 1441.87 199.975 1448.6 202.272C1452 203.434 1455.25 204.955 1458.32 206.903C1458.47 207 1458.62 207.099 1458.78 207.198C1460.38 208.242 1460.57 210.342 1459.81 211.681C1458.93 213.212 1457.12 213.688 1455.61 212.78C1454.75 212.267 1453.91 211.733 1453.04 211.26C1449.05 209.091 1444.82 207.684 1440.42 206.798C1437.04 206.115 1433.63 205.782 1430 205.766Z" fill="url(#paint26_linear_219_2)"/>
<path fill-rule="evenodd" clip-rule="evenodd" d="M1430.28 213.239C1435.56 213.295 1440.71 214.011 1445.72 215.709C1448.48 216.646 1451.12 217.857 1453.62 219.358C1453.84 219.488 1454.06 219.616 1454.26 219.769C1455.27 220.54 1455.53 221.938 1454.88 223.038C1454.25 224.105 1452.91 224.534 1451.77 224.026C1451.54 223.924 1451.32 223.787 1451.11 223.657C1446.86 221.127 1442.28 219.56 1437.42 218.81C1434.43 218.35 1431.42 218.191 1428.41 218.31C1424.51 218.464 1420.65 219.008 1416.84 219.857C1416.46 219.943 1416.06 220.021 1415.67 220.025C1414.49 220.038 1413.49 219.196 1413.28 218.055C1413.06 216.846 1413.66 215.713 1414.76 215.267C1414.99 215.173 1415.24 215.113 1415.49 215.057C1418.61 214.353 1421.75 213.821 1424.94 213.55C1426.72 213.399 1428.5 213.339 1430.28 213.239Z" fill="url(#paint27_linear_219_2)"/>
<rect x="1403.55" y="166.668" width="70" height="70" rx="7.5" transform="rotate(4 1403.55 166.668)" stroke="url(#paint28_linear_219_2)" stroke-width="5"/>
<path d="M1109.16 629.577L1098.45 624.327C1097.21 623.719 1095.73 623.975 1094.76 624.966L1059.71 657.515C1058.76 658.39 1058.76 659.902 1059.71 660.776L1062.57 663.427C1063.34 664.141 1064.51 664.194 1065.34 663.552L1107.55 630.939C1108.97 629.845 1111 630.874 1111 632.684V632.558C1111 631.287 1110.29 630.128 1109.16 629.577Z" fill="url(#paint29_linear_219_2)"/>
<path d="M1109.16 670.436L1098.45 675.592C1097.21 676.189 1095.73 675.937 1094.76 674.964L1059.71 643.004C1058.76 642.144 1058.76 640.66 1059.71 639.802L1062.57 637.199C1063.34 636.497 1064.51 636.445 1065.34 637.076L1107.55 669.099C1108.97 670.173 1111 669.163 1111 667.386V667.51C1111 668.758 1110.29 669.895 1109.16 670.436Z" fill="url(#paint30_linear_219_2)"/>
<path d="M1098.45 675.593C1097.21 676.19 1095.73 675.937 1094.76 674.965C1095.96 676.163 1098.01 675.314 1098.01 673.619V626.507C1098.01 624.812 1095.96 623.963 1094.76 625.162C1095.73 624.189 1097.21 623.937 1098.45 624.533L1109.16 629.681C1110.28 630.222 1111 631.36 1111 632.609V667.518C1111 668.766 1110.28 669.904 1109.16 670.445L1098.45 675.593Z" fill="url(#paint31_linear_219_2)"/>
<rect x="1048.59" y="616.029" width="70" height="70" rx="7.5" transform="rotate(-2 1048.59 616.029)" stroke="url(#paint32_linear_219_2)" stroke-width="5"/>
<mask id="path-38-outside-1_219_2" maskUnits="userSpaceOnUse" x="1115" y="369" width="57" height="43" fill="black">
<rect fill="white" x="1115" y="369" width="57" height="43"/>
<path fill-rule="evenodd" clip-rule="evenodd" d="M1161.69 374.979C1163.69 375.506 1165.27 377.051 1165.81 379.009C1166.81 382.587 1166.77 390.043 1166.77 390.043C1166.77 390.043 1166.77 397.462 1165.81 401.04C1165.27 402.998 1163.69 404.543 1161.69 405.07C1158.03 406.011 1143.39 406.011 1143.39 406.011C1143.39 406.011 1128.78 406.011 1125.09 405.032C1123.08 404.505 1121.5 402.961 1120.96 401.002C1120 397.462 1120 390.006 1120 390.006C1120 390.006 1120 382.587 1120.96 379.009C1121.5 377.051 1123.12 375.469 1125.09 374.942C1128.75 374 1143.39 374 1143.39 374C1143.39 374 1158.03 374 1161.69 374.979ZM1150.9 390.006L1138.72 396.86V383.151L1150.9 390.006Z"/>
</mask>
<path d="M1165.81 379.009L1160.99 380.336L1160.99 380.347L1160.99 380.357L1165.81 379.009ZM1161.69 374.979L1160.39 379.809L1160.4 379.812L1160.41 379.814L1161.69 374.979ZM1166.77 390.043L1161.77 390.018L1161.77 390.03V390.043H1166.77ZM1165.81 401.04L1170.63 402.367L1170.63 402.354L1170.64 402.34L1165.81 401.04ZM1161.69 405.07L1162.93 409.912L1162.95 409.909L1162.96 409.905L1161.69 405.07ZM1143.39 406.011L1143.39 411.011L1143.39 411.011L1143.39 406.011ZM1125.09 405.032L1126.36 400.199L1126.36 400.197L1125.09 405.032ZM1120.96 401.002L1116.14 402.315L1116.14 402.322L1116.14 402.33L1120.96 401.002ZM1120.96 379.009L1116.14 377.682L1116.14 377.695L1116.14 377.709L1120.96 379.009ZM1125.09 374.942L1123.84 370.099L1123.81 370.106L1123.79 370.112L1125.09 374.942ZM1143.39 374L1143.39 369L1143.39 369L1143.39 374ZM1138.72 396.86H1133.72V405.413L1141.18 401.217L1138.72 396.86ZM1150.9 390.006L1153.35 394.363L1161.09 390.006L1153.35 385.649L1150.9 390.006ZM1138.72 383.151L1141.18 378.795L1133.72 374.598V383.151H1138.72ZM1170.63 377.682C1169.61 373.963 1166.64 371.114 1162.96 370.144L1160.41 379.814C1160.74 379.899 1160.93 380.138 1160.99 380.336L1170.63 377.682ZM1166.77 390.043C1171.77 390.069 1171.77 390.069 1171.77 390.068C1171.77 390.068 1171.77 390.068 1171.77 390.068C1171.77 390.067 1171.77 390.066 1171.77 390.065C1171.77 390.063 1171.77 390.061 1171.77 390.058C1171.77 390.053 1171.77 390.046 1171.77 390.037C1171.77 390.019 1171.77 389.994 1171.77 389.962C1171.77 389.899 1171.77 389.809 1171.77 389.695C1171.77 389.466 1171.77 389.142 1171.76 388.743C1171.75 387.947 1171.72 386.844 1171.66 385.618C1171.54 383.324 1171.29 380.051 1170.62 377.661L1160.99 380.357C1161.33 381.545 1161.56 383.789 1161.67 386.118C1161.73 387.203 1161.75 388.188 1161.76 388.902C1161.77 389.258 1161.77 389.544 1161.77 389.737C1161.77 389.834 1161.77 389.908 1161.77 389.955C1161.77 389.979 1161.77 389.996 1161.77 390.007C1161.77 390.012 1161.77 390.016 1161.77 390.018C1161.77 390.018 1161.77 390.019 1161.77 390.019C1161.77 390.019 1161.77 390.019 1161.77 390.019C1161.77 390.018 1161.77 390.018 1161.77 390.018C1161.77 390.018 1161.77 390.018 1166.77 390.043ZM1170.64 402.34C1171.27 399.982 1171.53 396.748 1171.64 394.461C1171.71 393.243 1171.74 392.149 1171.76 391.359C1171.76 390.962 1171.77 390.64 1171.77 390.414C1171.77 390.301 1171.77 390.211 1171.77 390.149C1171.77 390.118 1171.77 390.093 1171.77 390.075C1171.77 390.066 1171.77 390.059 1171.77 390.054C1171.77 390.051 1171.77 390.049 1171.77 390.047C1171.77 390.046 1171.77 390.046 1171.77 390.045C1171.77 390.045 1171.77 390.044 1171.77 390.044C1171.77 390.044 1171.77 390.043 1166.77 390.043C1161.77 390.043 1161.77 390.043 1161.77 390.043C1161.77 390.043 1161.77 390.043 1161.77 390.042C1161.77 390.042 1161.77 390.042 1161.77 390.042C1161.77 390.042 1161.77 390.043 1161.77 390.044C1161.77 390.045 1161.77 390.049 1161.77 390.054C1161.77 390.065 1161.77 390.082 1161.77 390.106C1161.77 390.154 1161.77 390.228 1161.77 390.324C1161.77 390.518 1161.76 390.803 1161.76 391.158C1161.74 391.871 1161.72 392.855 1161.66 393.939C1161.54 396.256 1161.31 398.52 1160.98 399.74L1170.64 402.34ZM1162.96 409.905C1166.64 408.936 1169.61 406.086 1170.63 402.367L1160.99 399.713C1160.93 399.911 1160.74 400.15 1160.41 400.235L1162.96 409.905ZM1143.39 406.011C1143.39 411.011 1143.39 411.011 1143.39 411.011C1143.39 411.011 1143.39 411.011 1143.39 411.011C1143.39 411.011 1143.39 411.011 1143.39 411.011C1143.39 411.011 1143.4 411.011 1143.4 411.011C1143.41 411.011 1143.42 411.011 1143.43 411.011C1143.46 411.011 1143.51 411.011 1143.56 411.011C1143.67 411.011 1143.84 411.01 1144.04 411.009C1144.46 411.007 1145.06 411.004 1145.78 410.996C1147.23 410.981 1149.21 410.951 1151.31 410.891C1153.4 410.832 1155.65 410.741 1157.63 410.602C1159.48 410.472 1161.52 410.276 1162.93 409.912L1160.44 400.227C1160.03 400.334 1158.86 400.491 1156.93 400.626C1155.14 400.752 1153.05 400.838 1151.02 400.896C1149 400.953 1147.09 400.982 1145.68 400.997C1144.98 401.004 1144.4 401.008 1144 401.009C1143.8 401.01 1143.65 401.011 1143.54 401.011C1143.49 401.011 1143.45 401.011 1143.42 401.011C1143.41 401.011 1143.4 401.011 1143.39 401.011C1143.39 401.011 1143.39 401.011 1143.39 401.011C1143.39 401.011 1143.39 401.011 1143.39 401.011C1143.39 401.011 1143.39 401.011 1143.39 401.011C1143.39 401.011 1143.39 401.011 1143.39 406.011ZM1123.81 409.866C1125.24 410.246 1127.29 410.45 1129.14 410.585C1131.13 410.73 1133.38 410.824 1135.47 410.887C1137.57 410.949 1139.55 410.98 1140.99 410.996C1141.72 411.003 1142.31 411.007 1142.73 411.009C1142.94 411.01 1143.1 411.011 1143.21 411.011C1143.27 411.011 1143.31 411.011 1143.34 411.011C1143.35 411.011 1143.36 411.011 1143.37 411.011C1143.38 411.011 1143.38 411.011 1143.38 411.011C1143.38 411.011 1143.38 411.011 1143.38 411.011C1143.38 411.011 1143.39 411.011 1143.39 411.011C1143.39 411.011 1143.39 411.011 1143.39 406.011C1143.39 401.011 1143.39 401.011 1143.39 401.011C1143.39 401.011 1143.39 401.011 1143.39 401.011C1143.39 401.011 1143.39 401.011 1143.38 401.011C1143.38 401.011 1143.38 401.011 1143.38 401.011C1143.37 401.011 1143.36 401.011 1143.35 401.011C1143.32 401.011 1143.28 401.011 1143.23 401.011C1143.13 401.011 1142.97 401.01 1142.77 401.009C1142.38 401.007 1141.8 401.004 1141.1 400.996C1139.69 400.981 1137.79 400.951 1135.77 400.891C1133.75 400.831 1131.66 400.742 1129.87 400.611C1127.95 400.471 1126.78 400.308 1126.36 400.199L1123.81 409.866ZM1116.14 402.33C1117.17 406.048 1120.13 408.898 1123.81 409.868L1126.36 400.197C1126.04 400.112 1125.84 399.873 1125.78 399.675L1116.14 402.33ZM1120 390.006C1115 390.006 1115 390.006 1115 390.006C1115 390.007 1115 390.007 1115 390.007C1115 390.008 1115 390.009 1115 390.01C1115 390.011 1115 390.014 1115 390.016C1115 390.022 1115 390.029 1115 390.038C1115 390.055 1115 390.08 1115 390.111C1115 390.174 1115 390.264 1115 390.378C1115 390.605 1115.01 390.928 1115.02 391.326C1115.03 392.119 1115.06 393.217 1115.13 394.437C1115.25 396.724 1115.5 399.967 1116.14 402.315L1125.79 399.69C1125.46 398.498 1125.24 396.243 1125.11 393.916C1125.06 392.829 1125.03 391.842 1125.01 391.126C1125.01 390.77 1125 390.483 1125 390.288C1125 390.191 1125 390.117 1125 390.069C1125 390.045 1125 390.028 1125 390.017C1125 390.012 1125 390.008 1125 390.006C1125 390.005 1125 390.005 1125 390.005C1125 390.004 1125 390.005 1125 390.005C1125 390.005 1125 390.005 1125 390.005C1125 390.005 1125 390.006 1120 390.006ZM1116.14 377.709C1115.5 380.067 1115.25 383.301 1115.13 385.588C1115.06 386.806 1115.03 387.9 1115.02 388.69C1115.01 389.087 1115 389.409 1115 389.635C1115 389.748 1115 389.838 1115 389.9C1115 389.932 1115 389.956 1115 389.974C1115 389.983 1115 389.99 1115 389.995C1115 389.998 1115 390 1115 390.002C1115 390.003 1115 390.003 1115 390.004C1115 390.004 1115 390.005 1115 390.005C1115 390.005 1115 390.006 1120 390.006C1125 390.006 1125 390.006 1125 390.006C1125 390.006 1125 390.007 1125 390.007C1125 390.007 1125 390.007 1125 390.007C1125 390.007 1125 390.006 1125 390.005C1125 390.004 1125 390 1125 389.995C1125 389.984 1125 389.967 1125 389.943C1125 389.895 1125 389.821 1125 389.725C1125 389.531 1125.01 389.246 1125.01 388.891C1125.03 388.178 1125.06 387.194 1125.11 386.11C1125.23 383.793 1125.46 381.529 1125.79 380.309L1116.14 377.709ZM1123.79 370.112C1120.15 371.09 1117.16 373.979 1116.14 377.682L1125.78 380.336C1125.84 380.123 1126.09 379.848 1126.38 379.771L1123.79 370.112ZM1143.39 374C1143.39 369 1143.39 369 1143.39 369C1143.39 369 1143.38 369 1143.38 369C1143.38 369 1143.38 369 1143.38 369C1143.38 369 1143.38 369 1143.37 369C1143.36 369 1143.35 369 1143.34 369C1143.31 369 1143.27 369 1143.21 369C1143.1 369.001 1142.94 369.001 1142.73 369.002C1142.31 369.004 1141.72 369.008 1140.99 369.015C1139.54 369.03 1137.56 369.06 1135.47 369.12C1133.37 369.18 1131.12 369.27 1129.14 369.41C1127.29 369.539 1125.26 369.735 1123.84 370.099L1126.33 379.784C1126.74 379.677 1127.91 379.52 1129.84 379.385C1131.63 379.26 1133.72 379.174 1135.75 379.116C1137.77 379.058 1139.68 379.029 1141.09 379.015C1141.8 379.007 1142.37 379.004 1142.77 379.002C1142.97 379.001 1143.13 379.001 1143.23 379C1143.28 379 1143.32 379 1143.35 379C1143.36 379 1143.37 379 1143.38 379C1143.38 379 1143.38 379 1143.38 379C1143.39 379 1143.39 379 1143.39 379C1143.39 379 1143.39 379 1143.39 379C1143.39 379 1143.39 379 1143.39 374ZM1162.98 370.149C1161.54 369.766 1159.5 369.561 1157.65 369.426C1155.66 369.281 1153.4 369.187 1151.31 369.125C1149.21 369.062 1147.23 369.031 1145.78 369.016C1145.06 369.008 1144.46 369.004 1144.05 369.002C1143.84 369.001 1143.67 369.001 1143.56 369C1143.51 369 1143.46 369 1143.43 369C1143.42 369 1143.41 369 1143.4 369C1143.4 369 1143.39 369 1143.39 369C1143.39 369 1143.39 369 1143.39 369C1143.39 369 1143.39 369 1143.39 369C1143.39 369 1143.39 369 1143.39 374C1143.39 379 1143.39 379 1143.39 379C1143.39 379 1143.39 379 1143.39 379C1143.39 379 1143.39 379 1143.39 379C1143.39 379 1143.39 379 1143.39 379C1143.4 379 1143.41 379 1143.42 379C1143.45 379 1143.49 379 1143.54 379C1143.64 379.001 1143.8 379.001 1144 379.002C1144.4 379.004 1144.97 379.008 1145.68 379.015C1147.09 379.03 1149 379.06 1151.02 379.12C1153.04 379.181 1155.13 379.27 1156.92 379.4C1158.84 379.54 1160 379.703 1160.39 379.809L1162.98 370.149ZM1141.18 401.217L1153.35 394.363L1148.45 385.649L1136.27 392.503L1141.18 401.217ZM1133.72 383.151V396.86H1143.72V383.151H1133.72ZM1153.35 385.649L1141.18 378.795L1136.27 387.508L1148.45 394.363L1153.35 385.649Z" fill="url(#paint33_linear_219_2)" mask="url(#path-38-outside-1_219_2)"/>
<rect x="1105.67" y="357.551" width="70" height="70" rx="7.5" transform="rotate(-4 1105.67 357.551)" stroke="url(#paint34_linear_219_2)" stroke-width="5"/>
<path d="M1535.26 492.597C1535.26 492.606 1535.27 492.616 1535.27 492.626L1536.73 491.916L1537.53 491.563C1537.7 491.95 1541.64 501.07 1550.46 502.541M1535.26 492.597L1548.61 502.617C1548.61 502.619 1548.61 502.621 1548.61 502.623C1548.55 502.747 1548.51 502.9 1548.5 503.076L1549.87 503.156L1549.88 503.157L1550.35 503.185L1550.46 502.541M1535.26 492.597C1535.26 492.601 1535.26 492.603 1535.26 492.6L1535.26 492.596L1535.26 492.597ZM1550.46 502.541L1550.35 503.185L1551 503.223M1550.46 502.541C1550.78 502.595 1551.02 502.89 1551 503.223M1551 503.223L1550.35 503.187L1550.32 503.346L1550.32 503.349L1550.14 504.467C1550.57 504.156 1550.8 503.859 1550.91 503.596C1550.96 503.474 1550.99 503.348 1551 503.223ZM1520.54 513.49L1520.37 513.482L1520.2 513.497C1520.19 513.498 1520.16 513.5 1520.11 513.5C1517.38 513.5 1515.65 512.316 1513.39 510.7L1513.39 510.7C1513.34 510.659 1513.28 510.618 1513.22 510.577C1511.8 509.557 1509.92 508.21 1507.62 507.822L1507.62 507.821C1506.65 507.658 1505.67 507.575 1504.72 507.575C1503.24 507.575 1502.03 507.777 1501.18 507.941C1501.06 507.422 1500.92 506.765 1500.69 506.22C1500.48 505.701 1499.83 504.367 1498.21 504.113C1497.12 503.942 1496.21 503.763 1495.46 503.584C1498.36 502.196 1500.57 500.146 1502.16 498.254C1504.43 495.551 1505.57 492.991 1505.75 492.572C1506.45 491.119 1506.8 489.389 1506.1 487.71L1506.1 487.709C1505.55 486.395 1504.53 485.564 1503.65 485.04C1505.06 484.8 1505.9 484.127 1506.27 483.746L1507.01 482.964L1506.95 481.885C1506.92 481.283 1506.88 480.656 1506.84 480.02L1506.84 479.981L1506.84 479.98C1506.71 477.85 1506.57 475.592 1506.61 473.505C1506.66 471.358 1506.91 469.713 1507.36 468.688L1507.36 468.687C1510.69 461.125 1517.69 460.511 1519.87 460.511C1519.92 460.511 1520.21 460.508 1520.46 460.505L1520.82 460.502L1520.94 460.5L1520.97 460.5H1521.1C1523.29 460.5 1530.31 461.116 1533.64 468.682C1534.09 469.708 1534.34 471.355 1534.39 473.502C1534.43 475.591 1534.29 477.849 1534.16 479.977L1534.16 479.984L1534.15 480.161C1534.15 480.162 1534.15 480.163 1534.15 480.164C1534.11 480.748 1534.08 481.328 1534.05 481.887L1533.99 482.976L1534.75 483.76C1535.1 484.119 1535.93 484.797 1537.35 485.038C1536.47 485.562 1535.45 486.394 1534.9 487.709L1534.9 487.71C1534.19 489.394 1534.55 491.128 1535.25 492.583C1535.45 493.056 1536.6 495.585 1538.84 498.253C1540.42 500.143 1542.64 502.192 1545.54 503.579C1544.78 503.758 1543.87 503.936 1542.79 504.107C1541.27 504.344 1540.6 505.523 1540.34 506.13C1540.1 506.678 1539.95 507.345 1539.82 507.918C1538.85 507.738 1537.7 507.575 1536.28 507.575C1535.33 507.575 1534.35 507.658 1533.38 507.821L1533.38 507.822C1531.07 508.211 1529.2 509.558 1527.77 510.578C1527.72 510.618 1527.66 510.658 1527.61 510.696L1527.61 510.697C1525.35 512.316 1523.62 513.5 1520.88 513.5C1520.78 513.5 1520.67 513.497 1520.54 513.49ZM1542.19 483.47C1542.19 483.469 1542.19 483.468 1542.19 483.467L1542.19 483.47ZM1549.9 503.162L1550.35 503.187L1550.32 503.346L1550.32 503.349L1550.14 504.468C1549.97 504.591 1549.77 504.715 1549.53 504.841C1548.87 504.517 1548.46 503.824 1548.5 503.085L1549.88 503.161L1549.9 503.162ZM1549.43 504.892C1548.29 505.476 1546.37 506.077 1543.17 506.577L1549.43 504.892ZM1498.52 484.224C1498.52 484.224 1498.52 484.223 1498.52 484.222C1498.52 484.223 1498.52 484.224 1498.52 484.224ZM1505.72 492.638L1505.73 492.627C1505.73 492.631 1505.72 492.635 1505.72 492.638Z" stroke="url(#paint35_linear_219_2)" stroke-width="5"/>
<rect x="1483.59" y="454.029" width="70" height="70" rx="7.5" transform="rotate(-2 1483.59 454.029)" stroke="url(#paint36_linear_219_2)" stroke-width="5"/>
<path fill-rule="evenodd" clip-rule="evenodd" d="M506 472C495.512 472 487 480.512 487 491C487 501.488 495.512 510 506 510C516.488 510 525 501.488 525 491C525 480.512 516.488 472 506 472ZM506 496.7C502.846 496.7 500.3 494.154 500.3 491C500.3 487.846 502.846 485.3 506 485.3C509.154 485.3 511.7 487.846 511.7 491C511.7 494.154 509.154 496.7 506 496.7Z" fill="url(#paint37_linear_219_2)"/>
<path d="M527.356 486.25C532.183 487.639 537.882 486.25 537.882 486.25C536.229 493.47 530.985 497.992 523.423 498.543C520.516 505.288 513.809 510 506 510L511.7 491.884C517.559 473.261 520.563 472 534.459 472L544 472C542.404 479.03 536.904 484.401 527.356 486.25Z" fill="url(#paint38_linear_219_2)"/>
<rect x="478.668" y="456.551" width="70" height="70" rx="7.5" transform="rotate(-4 478.668 456.551)" stroke="url(#paint39_linear_219_2)" stroke-width="5"/>
</g>
<defs>
<linearGradient id="paint0_linear_219_2" x1="2000" y1="0" x2="2000" y2="1024" gradientUnits="userSpaceOnUse">
<stop/>
<stop offset="0.119792" stop-color="#281119"/>
<stop offset="1" stop-color="#9F0030"/>
</linearGradient>
<linearGradient id="paint1_linear_219_2" x1="1226" y1="264.122" x2="1226" y2="395.479" gradientUnits="userSpaceOnUse">
<stop offset="0.0001" stop-color="#A7AA00"/>
<stop offset="1" stop-color="#1E9500"/>
</linearGradient>
<linearGradient id="paint2_linear_219_2" x1="851.5" y1="642" x2="851.5" y2="768" gradientUnits="userSpaceOnUse">
<stop stop-color="#820097"/>
<stop offset="1" stop-color="#260038"/>
</linearGradient>
<linearGradient id="paint3_linear_219_2" x1="1561" y1="245.884" x2="1561" y2="395.407" gradientUnits="userSpaceOnUse">
<stop offset="0.0001" stop-color="#A7AA00"/>
<stop offset="1" stop-color="#1E9500"/>
</linearGradient>
<linearGradient id="paint4_linear_219_2" x1="1307.5" y1="607" x2="1307.5" y2="803" gradientUnits="userSpaceOnUse">
<stop stop-color="#820097"/>
<stop offset="1" stop-color="#260038"/>
</linearGradient>
<linearGradient id="paint5_linear_219_2" x1="825.5" y1="412" x2="825.5" y2="216" gradientUnits="userSpaceOnUse">
<stop stop-color="#260038"/>
<stop offset="1" stop-color="#820097"/>
</linearGradient>
<linearGradient id="paint6_linear_219_2" x1="1138" y1="810.116" x2="1138" y2="912.594" gradientUnits="userSpaceOnUse">
<stop offset="0.0001" stop-color="#A7AA00"/>
<stop offset="1" stop-color="#1E9500"/>
</linearGradient>
<linearGradient id="paint7_linear_219_2" x1="1162" y1="463.076" x2="1162" y2="521.767" gradientUnits="userSpaceOnUse">
<stop offset="0.0001" stop-color="#A7AA00"/>
<stop offset="1" stop-color="#1E9500"/>
</linearGradient>
<linearGradient id="paint8_linear_219_2" x1="1307.5" y1="255" x2="1307.5" y2="374" gradientUnits="userSpaceOnUse">
<stop stop-color="#820097"/>
<stop offset="1" stop-color="#260038"/>
</linearGradient>
<linearGradient id="paint9_linear_219_2" x1="1418" y1="255" x2="1418" y2="427" gradientUnits="userSpaceOnUse">
<stop stop-color="#820097"/>
<stop offset="1" stop-color="#260038"/>
</linearGradient>
<linearGradient id="paint10_linear_219_2" x1="1558" y1="383.266" x2="1558" y2="509.499" gradientUnits="userSpaceOnUse">
<stop offset="0.0001" stop-color="#A7AA00"/>
<stop offset="1" stop-color="#1E9500"/>
</linearGradient>
<linearGradient id="paint11_linear_219_2" x1="1383" y1="427" x2="1383" y2="647" gradientUnits="userSpaceOnUse">
<stop stop-color="#820097"/>
<stop offset="1" stop-color="#260038"/>
</linearGradient>
<linearGradient id="paint12_linear_219_2" x1="669.5" y1="427" x2="669.5" y2="768" gradientUnits="userSpaceOnUse">
<stop stop-color="#820097"/>
<stop offset="1" stop-color="#260038"/>
</linearGradient>
<linearGradient id="paint13_linear_219_2" x1="1284" y1="601.917" x2="1284" y2="672.719" gradientUnits="userSpaceOnUse">
<stop offset="0.0001" stop-color="#A7AA00"/>
<stop offset="1" stop-color="#1E9500"/>
</linearGradient>
<linearGradient id="paint14_linear_219_2" x1="1162" y1="451" x2="1162" y2="623" gradientUnits="userSpaceOnUse">
<stop stop-color="#820097"/>
<stop offset="1" stop-color="#260038"/>
</linearGradient>
<linearGradient id="paint15_linear_219_2" x1="826" y1="314" x2="826" y2="546" gradientUnits="userSpaceOnUse">
<stop stop-color="#820097"/>
<stop offset="1" stop-color="#260038"/>
</linearGradient>
<linearGradient id="paint16_linear_219_2" x1="1698.98" y1="312.524" x2="1698.98" y2="354.524" gradientUnits="userSpaceOnUse">
<stop stop-color="#6F7DFF"/>
<stop offset="1" stop-color="#2735B9"/>
</linearGradient>
<linearGradient id="paint17_linear_219_2" x1="1696.5" y1="299.232" x2="1696.5" y2="374.232" gradientUnits="userSpaceOnUse">
<stop stop-color="#6F7DFF"/>
<stop offset="1" stop-color="#2735B9"/>
</linearGradient>
<linearGradient id="paint18_linear_219_2" x1="1436.12" y1="676" x2="1436.12" y2="751" gradientUnits="userSpaceOnUse">
<stop stop-color="#32179F"/>
<stop offset="1" stop-color="#200B75"/>
</linearGradient>
<linearGradient id="paint19_linear_219_2" x1="1436.97" y1="707.45" x2="1436.97" y2="708.45" gradientUnits="userSpaceOnUse">
<stop stop-color="#32179F"/>
<stop offset="1" stop-color="#200B75"/>
</linearGradient>
<linearGradient id="paint20_linear_219_2" x1="1431.75" y1="714.985" x2="1431.75" y2="715.985" gradientUnits="userSpaceOnUse">
<stop stop-color="#32179F"/>
<stop offset="1" stop-color="#200B75"/>
</linearGradient>
<linearGradient id="paint21_linear_219_2" x1="1436.97" y1="722.52" x2="1436.97" y2="723.52" gradientUnits="userSpaceOnUse">
<stop stop-color="#32179F"/>
<stop offset="1" stop-color="#200B75"/>
</linearGradient>
<linearGradient id="paint22_linear_219_2" x1="1444.79" y1="695.278" x2="1444.79" y2="702.233" gradientUnits="userSpaceOnUse">
<stop stop-color="#32179F"/>
<stop offset="1" stop-color="#200B75"/>
</linearGradient>
<linearGradient id="paint23_linear_219_2" x1="1430.01" y1="730.055" x2="1430.01" y2="737.011" gradientUnits="userSpaceOnUse">
<stop stop-color="#32179F"/>
<stop offset="1" stop-color="#200B75"/>
</linearGradient>
<linearGradient id="paint24_linear_219_2" x1="1433.63" y1="684.761" x2="1433.63" y2="745.788" gradientUnits="userSpaceOnUse">
<stop stop-color="#32179F"/>
<stop offset="1" stop-color="#200B75"/>
</linearGradient>
<linearGradient id="paint25_linear_219_2" x1="1437.74" y1="200.239" x2="1437.74" y2="185.239" gradientUnits="userSpaceOnUse">
<stop stop-color="#51BF52"/>
<stop offset="1" stop-color="#0E480E"/>
</linearGradient>
<linearGradient id="paint26_linear_219_2" x1="1436.24" y1="213.239" x2="1436.24" y2="199.239" gradientUnits="userSpaceOnUse">
<stop stop-color="#51BF52"/>
<stop offset="1" stop-color="#0E480E"/>
</linearGradient>
<linearGradient id="paint27_linear_219_2" x1="1434.24" y1="224.239" x2="1434.24" y2="213.239" gradientUnits="userSpaceOnUse">
<stop stop-color="#51BF52"/>
<stop offset="1" stop-color="#0E480E"/>
</linearGradient>
<linearGradient id="paint28_linear_219_2" x1="1438.73" y1="164" x2="1438.73" y2="239" gradientUnits="userSpaceOnUse">
<stop stop-color="#51BF52"/>
<stop offset="1" stop-color="#0E480E"/>
</linearGradient>
<linearGradient id="paint29_linear_219_2" x1="1085" y1="624" x2="1085" y2="664" gradientUnits="userSpaceOnUse">
<stop stop-color="#1F9CF0"/>
<stop offset="1" stop-color="#0D5C91"/>
</linearGradient>
<linearGradient id="paint30_linear_219_2" x1="1085" y1="636.635" x2="1085" y2="675.913" gradientUnits="userSpaceOnUse">
<stop stop-color="#1F9CF0"/>
<stop offset="1" stop-color="#0D5C91"/>
</linearGradient>
<linearGradient id="paint31_linear_219_2" x1="1102.88" y1="624.213" x2="1102.88" y2="675.913" gradientUnits="userSpaceOnUse">
<stop stop-color="#1F9CF0"/>
<stop offset="1" stop-color="#0D5C91"/>
</linearGradient>
<linearGradient id="paint32_linear_219_2" x1="1083.5" y1="613.618" x2="1083.5" y2="688.618" gradientUnits="userSpaceOnUse">
<stop stop-color="#1F9CF0"/>
<stop offset="1" stop-color="#0D5C91"/>
</linearGradient>
<linearGradient id="paint33_linear_219_2" x1="1143.39" y1="374" x2="1143.39" y2="406.011" gradientUnits="userSpaceOnUse">
<stop stop-color="#FF0000"/>
<stop offset="1" stop-color="#7A0000"/>
</linearGradient>
<linearGradient id="paint34_linear_219_2" x1="1140.5" y1="355.232" x2="1140.5" y2="430.232" gradientUnits="userSpaceOnUse">
<stop stop-color="#FF0000"/>
<stop offset="1" stop-color="#7A0000"/>
</linearGradient>
<linearGradient id="paint35_linear_219_2" x1="1520.5" y1="516" x2="1520.5" y2="458" gradientUnits="userSpaceOnUse">
<stop stop-color="#737100"/>
<stop offset="1" stop-color="#FDFA00"/>
</linearGradient>
<linearGradient id="paint36_linear_219_2" x1="1518.5" y1="451.618" x2="1518.5" y2="526.618" gradientUnits="userSpaceOnUse">
<stop stop-color="#FFFC00"/>
<stop offset="1" stop-color="#737100"/>
</linearGradient>
<linearGradient id="paint37_linear_219_2" x1="506" y1="472" x2="506" y2="510" gradientUnits="userSpaceOnUse">
<stop stop-color="#00AEEF"/>
<stop offset="1" stop-color="#005F83"/>
</linearGradient>
<linearGradient id="paint38_linear_219_2" x1="525" y1="472" x2="525" y2="510" gradientUnits="userSpaceOnUse">
<stop stop-color="#00AEEF"/>
<stop offset="1" stop-color="#005F83"/>
</linearGradient>
<linearGradient id="paint39_linear_219_2" x1="513.5" y1="454.232" x2="513.5" y2="529.232" gradientUnits="userSpaceOnUse">
<stop stop-color="#00AEEF"/>
<stop offset="1" stop-color="#005F83"/>
</linearGradient>
<clipPath id="clip0_219_2">
<rect width="4000" height="1024" fill="white"/>
</clipPath>
</defs>
</svg>
